<svg id="ic_vedio_traffic_2_3_ball_dark" data-name="ic_vedio_traffic 2&amp;3 ball_dark" xmlns="http://www.w3.org/2000/svg" xmlns:xlink="http://www.w3.org/1999/xlink" width="20" height="20" viewBox="0 0 20 20">
  <defs>
    <linearGradient id="linear-gradient" x1="0.5" x2="0.5" y2="1" gradientUnits="objectBoundingBox">
      <stop offset="0" stop-color="#f7ff00"/>
      <stop offset="1" stop-color="#fd0"/>
    </linearGradient>
  </defs>
  <rect id="矩形_139874" data-name="矩形 139874" width="20" height="20" rx="4" fill="none"/>
  <g id="组_68990" data-name="组 68990" transform="translate(-35.031 -139.73)">
    <path id="路径_134776" data-name="路径 134776" d="M10,13.215c-5.574,0-7.527-4.15-7.7-7.751A1.251,1.251,0,0,1,1.292,4.337V3.013H1.124A1.061,1.061,0,0,1,0,2.032V1.2A1.061,1.061,0,0,1,1.124.215h17.64A1.258,1.258,0,0,1,20,1.2v.837a1.061,1.061,0,0,1-1.124.981h-.168V4.337A1.251,1.251,0,0,1,17.7,5.464C17.527,9.065,15.574,13.215,10,13.215Zm0-6.642A2.765,2.765,0,0,0,7.143,9.23,2.765,2.765,0,0,0,10,11.887,2.765,2.765,0,0,0,12.857,9.23,2.765,2.765,0,0,0,10,6.573ZM2.079,3.062c0,.039,0,.139,0,.267.007.384.019,1.025,0,1.068H17.809V3.062Zm7.915,7.5a.43.43,0,0,1-.415-.386.392.392,0,0,1,.415-.385.587.587,0,0,0,.6-.557.385.385,0,0,1,.415-.387.393.393,0,0,1,.414.387A1.4,1.4,0,0,1,9.994,10.558Z" transform="translate(35.031 145.515)" fill="url(#linear-gradient)"/>
  </g>
  <g id="组_68991" data-name="组 68991" transform="translate(0 1)">
    <rect id="矩形_139659" data-name="矩形 139659" width="12" height="7" rx="1" transform="translate(8)" fill="url(#linear-gradient)"/>
    <path id="路径_184368" data-name="路径 184368" d="M6.433-9.438H4.1l.02-.006a5.067,5.067,0,0,0-.481-.875l-.752.254a5.253,5.253,0,0,1,.336.628H.651V-8.7H6.433ZM4.172-8.259a9.884,9.884,0,0,1,1.642,1.4l.673-.488A10.257,10.257,0,0,0,4.792-8.684ZM2.214-8.646A5.234,5.234,0,0,1,.6-7.441a5.624,5.624,0,0,1,.62.552A6.917,6.917,0,0,0,2.972-8.367Zm2.2,1.091a3.255,3.255,0,0,1-.857,1.249,3.623,3.623,0,0,1-.844-1.218L2-7.314a5.054,5.054,0,0,0,.963,1.459,6.765,6.765,0,0,1-2.413.863,4.338,4.338,0,0,1,.475.672A7.5,7.5,0,0,0,3.545-5.347a6.082,6.082,0,0,0,2.532,1,2.829,2.829,0,0,1,.475-.679,6.048,6.048,0,0,1-2.393-.812A4.626,4.626,0,0,0,5.2-7.333Z" transform="translate(10.447 10.82)" fill="#081c5e"/>
  </g>
</svg>
