<svg id="ic_vedio_high_2_3_ball_dark_offline" data-name="ic_vedio_high 2&amp;3 ball_dark_offline" xmlns="http://www.w3.org/2000/svg" xmlns:xlink="http://www.w3.org/1999/xlink" width="20" height="20" viewBox="0 0 20 20">
  <defs>
    <linearGradient id="linear-gradient" x1="0.5" x2="0.5" y2="1" gradientUnits="objectBoundingBox">
      <stop offset="0" stop-color="#f7ff00"/>
      <stop offset="1" stop-color="#fd0"/>
    </linearGradient>
  </defs>
  <g id="ic_vedio_high_2_3_ball_dark" data-name="ic_vedio_high 2&amp;3 ball_dark">
    <path id="路径_184685" data-name="路径 184685" d="M4,0H16a4,4,0,0,1,4,4V16a4,4,0,0,1-4,4H4a4,4,0,0,1-4-4V4A4,4,0,0,1,4,0Z" fill="none"/>
    <path id="路径_191006" data-name="路径 191006" d="M128.542,194.035a7.576,7.576,0,0,1-15.142.039,3.4,3.4,0,0,1-1.416-1.307c-.063-1.1,0-4.2,0-4.911,2.832-3.3,15.047-3.352,17.972,0v4.911A3.475,3.475,0,0,1,128.542,194.035Zm-10.38,4.563h.171a3.444,3.444,0,0,0,5.273,0h.171v-3.989h-.056a2.769,2.769,0,0,0-5.5,0h-.056Zm10.391-10.075c-2.583-2.03-11.771-2.187-15.164-.054,0,.368-.029,2.016.023,2.579,2.67-1.827,12.39-1.8,15.142,0Zm-7.583,6.7a1.718,1.718,0,1,1-1.4,1.689A1.567,1.567,0,0,1,120.97,195.221Zm0,0" transform="translate(-110.955 -181.361)" fill="url(#linear-gradient)"/>
    <g id="组_69032" data-name="组 69032" transform="translate(3)">
      <rect id="矩形_139659" data-name="矩形 139659" width="10" height="8" rx="1" transform="translate(7)" fill="url(#linear-gradient)"/>
      <path id="路径_184377" data-name="路径 184377" d="M5.036-4.272H3.292v-.445H5.036ZM7.5-6.4H.906v3.487h.912V-5.653H6.55v1.888c0,.1-.048.133-.159.133-.079.008-.357.008-.634,0h.111V-5.365H2.42v2.059h.872v-.328H5.559a2.962,2.962,0,0,1,.277.655A4.342,4.342,0,0,0,7.1-3.071c.3-.117.4-.281.4-.686ZM5.749-7.338H2.682v-.429H5.749ZM6.74-8.391h-5v1.669h5ZM4.83-9.468c-.1-.25-.222-.538-.309-.78l-.975.234c.063.164.127.359.19.546H.684v.78h7v-.78Z" transform="translate(7.816 10.748)" fill="#081c5e"/>
    </g>
  </g>
  <path id="路径_191045" data-name="路径 191045" d="M88.767,87.586l4.575-4.575a.835.835,0,0,0-1.181-1.181L87.586,86.4,83.01,81.829a.835.835,0,0,0-1.181,1.181L86.4,87.586l-4.575,4.575a.835.835,0,0,0,1.181,1.181l4.575-4.575,4.575,4.575a.835.835,0,0,0,1.181-1.181l-4.575-4.575Z" transform="translate(-77.586 -75.586)" fill="#ff0020" stroke="#ff0020" stroke-width="0.5"/>
</svg>
