<svg id="ic_vedio_traffic_first_ball_dark_online" data-name="ic_vedio_traffic first ball_dark_online" xmlns="http://www.w3.org/2000/svg" xmlns:xlink="http://www.w3.org/1999/xlink" width="20" height="20" viewBox="0 0 20 20">
  <defs>
    <linearGradient id="linear-gradient" x1="0.5" x2="0.5" y2="1" gradientUnits="objectBoundingBox">
      <stop offset="0" stop-color="#00ffef"/>
      <stop offset="1" stop-color="#0082ff"/>
    </linearGradient>
    <linearGradient id="linear-gradient-2" x1="0.5" x2="0.5" y2="1" gradientUnits="objectBoundingBox">
      <stop offset="0" stop-color="#23fff1"/>
      <stop offset="1" stop-color="#2392fd"/>
    </linearGradient>
  </defs>
  <rect id="矩形_139876" data-name="矩形 139876" width="20" height="20" rx="4" fill="none"/>
  <g id="组_68977" data-name="组 68977" transform="translate(-35.031 -140.73)">
    <path id="路径_134776" data-name="路径 134776" d="M10,14.215c-5.574,0-7.527-4.469-7.7-8.347A1.319,1.319,0,0,1,1.292,4.654V3.228H1.124A1.093,1.093,0,0,1,0,2.172v-.9A1.093,1.093,0,0,1,1.124.215H18.763A1.281,1.281,0,0,1,20,1.271v.9a1.093,1.093,0,0,1-1.124,1.056h-.168V4.654A1.319,1.319,0,0,1,17.7,5.868C17.527,9.746,15.574,14.215,10,14.215Zm0-7.153a2.861,2.861,0,1,0,2.857,2.861A2.862,2.862,0,0,0,10,7.062ZM2.079,3.281c0,.042,0,.149,0,.287.007.413.019,1.1,0,1.15H17.809V3.281Zm7.915,8.073a.444.444,0,0,1-.415-.416.406.406,0,0,1,.415-.415.609.609,0,0,0,.6-.6.4.4,0,0,1,.415-.417.406.406,0,0,1,.414.417A1.449,1.449,0,0,1,9.994,11.354Z" transform="translate(35.031 145.515)" fill="url(#linear-gradient)"/>
  </g>
  <g id="组_68976" data-name="组 68976" transform="translate(0 1)">
    <rect id="矩形_139659" data-name="矩形 139659" width="12" height="7" rx="1" transform="translate(8)" fill="url(#linear-gradient-2)"/>
    <path id="路径_184368" data-name="路径 184368" d="M6.433-9.438H4.1l.02-.006a5.067,5.067,0,0,0-.481-.875l-.752.254a5.253,5.253,0,0,1,.336.628H.651V-8.7H6.433ZM4.172-8.259a9.884,9.884,0,0,1,1.642,1.4l.673-.488A10.257,10.257,0,0,0,4.792-8.684ZM2.214-8.646A5.234,5.234,0,0,1,.6-7.441a5.624,5.624,0,0,1,.62.552A6.917,6.917,0,0,0,2.972-8.367Zm2.2,1.091a3.255,3.255,0,0,1-.857,1.249,3.623,3.623,0,0,1-.844-1.218L2-7.314a5.054,5.054,0,0,0,.963,1.459,6.765,6.765,0,0,1-2.413.863,4.338,4.338,0,0,1,.475.672A7.5,7.5,0,0,0,3.545-5.347a6.082,6.082,0,0,0,2.532,1,2.829,2.829,0,0,1,.475-.679,6.048,6.048,0,0,1-2.393-.812A4.626,4.626,0,0,0,5.2-7.333Z" transform="translate(10.447 10.82)" fill="#081c5e"/>
  </g>
</svg>
