<svg id="ic_vedio_traffic_first_gun_dark_online" data-name="ic_vedio_traffic first gun_dark_online" xmlns="http://www.w3.org/2000/svg" xmlns:xlink="http://www.w3.org/1999/xlink" width="20" height="20" viewBox="0 0 20 20">
  <defs>
    <linearGradient id="linear-gradient" x1="0.575" y1="0.244" x2="0.015" y2="0.978" gradientUnits="objectBoundingBox">
      <stop offset="0" stop-color="#00ffef"/>
      <stop offset="1" stop-color="#0082ff"/>
    </linearGradient>
    <linearGradient id="linear-gradient-2" x1="0.5" x2="0.5" y2="1" gradientUnits="objectBoundingBox">
      <stop offset="0" stop-color="#23fff1"/>
      <stop offset="1" stop-color="#2392fd"/>
    </linearGradient>
  </defs>
  <rect id="矩形_139877" data-name="矩形 139877" width="20" height="20" rx="4" fill="none"/>
  <path id="路径_190998" data-name="路径 190998" d="M4.241,62.238H2.089v-2.4L0,59.507V67.2l2.089-.613V63.911H5.443l1.835-2.174L4.873,60.622Zm10.886.5L20,60.008,4.81,51.2H3.038L.633,54.545V55.66L13.988,62.8h1.139V62.74Zm-1.835.557L1.772,56.719.57,57.834,13.924,64.97h1.2l.633-.558.633-1.617s-1.772,1.115-1.835,1.115A11.353,11.353,0,0,0,13.291,63.3Z" transform="translate(0 -47.2)" fill="url(#linear-gradient)"/>
  <g id="组_68435" data-name="组 68435">
    <rect id="矩形_139659" data-name="矩形 139659" width="12" height="7" rx="1" transform="translate(8)" fill="url(#linear-gradient-2)"/>
    <path id="路径_184368" data-name="路径 184368" d="M6.433-9.438H4.1l.02-.006a5.067,5.067,0,0,0-.481-.875l-.752.254a5.253,5.253,0,0,1,.336.628H.651V-8.7H6.433ZM4.172-8.259a9.884,9.884,0,0,1,1.642,1.4l.673-.488A10.257,10.257,0,0,0,4.792-8.684ZM2.214-8.646A5.234,5.234,0,0,1,.6-7.441a5.624,5.624,0,0,1,.62.552A6.917,6.917,0,0,0,2.972-8.367Zm2.2,1.091a3.255,3.255,0,0,1-.857,1.249,3.623,3.623,0,0,1-.844-1.218L2-7.314a5.054,5.054,0,0,0,.963,1.459,6.765,6.765,0,0,1-2.413.863,4.338,4.338,0,0,1,.475.672A7.5,7.5,0,0,0,3.545-5.347a6.082,6.082,0,0,0,2.532,1,2.829,2.829,0,0,1,.475-.679,6.048,6.048,0,0,1-2.393-.812A4.626,4.626,0,0,0,5.2-7.333Z" transform="translate(10.447 10.82)" fill="#081c5e"/>
  </g>
</svg>
