<svg id="ic_vedio_man_first_ball_dark_offline" data-name="ic_vedio_man first ball_dark_offline" xmlns="http://www.w3.org/2000/svg" xmlns:xlink="http://www.w3.org/1999/xlink" width="20" height="20" viewBox="0 0 20 20">
  <defs>
    <linearGradient id="linear-gradient" x1="0.5" x2="0.5" y2="1" gradientUnits="objectBoundingBox">
      <stop offset="0" stop-color="#00ffef"/>
      <stop offset="1" stop-color="#0082ff"/>
    </linearGradient>
    <linearGradient id="linear-gradient-2" x1="0.5" x2="0.5" y2="1" gradientUnits="objectBoundingBox">
      <stop offset="0" stop-color="#23fff1"/>
      <stop offset="1" stop-color="#2392fd"/>
    </linearGradient>
  </defs>
  <g id="ic_vedio_man_first_ball_dark_online" data-name="ic_vedio_man first ball_dark_online">
    <rect id="矩形_139634" data-name="矩形 139634" width="20" height="20" rx="4" fill="none"/>
    <g id="组_68972" data-name="组 68972" transform="translate(-35.031 -139.731)">
      <path id="路径_134776" data-name="路径 134776" d="M10,13.215c-5.574,0-7.527-4.15-7.7-7.751A1.252,1.252,0,0,1,1.292,4.337V3.013H1.124A1.061,1.061,0,0,1,0,2.032V1.2A1.061,1.061,0,0,1,1.124.215H18.763A1.258,1.258,0,0,1,20,1.2v.837a1.061,1.061,0,0,1-1.124.981h-.168V4.337A1.251,1.251,0,0,1,17.7,5.464C17.527,9.065,15.574,13.215,10,13.215Zm0-6.642A2.765,2.765,0,0,0,7.143,9.23,2.765,2.765,0,0,0,10,11.887,2.765,2.765,0,0,0,12.857,9.23,2.765,2.765,0,0,0,10,6.573ZM2.079,3.062c0,.039,0,.139,0,.267.007.384.019,1.025,0,1.068H17.809V3.062Zm7.915,7.5a.43.43,0,0,1-.415-.386.392.392,0,0,1,.415-.385.587.587,0,0,0,.6-.557.385.385,0,0,1,.415-.387.393.393,0,0,1,.414.387A1.4,1.4,0,0,1,9.994,10.558Z" transform="translate(35.031 145.515)" fill="url(#linear-gradient)"/>
    </g>
    <g id="组_68971" data-name="组 68971" transform="translate(0 -1)">
      <rect id="矩形_139659" data-name="矩形 139659" width="12" height="7" rx="1" transform="translate(8 2)" fill="url(#linear-gradient-2)"/>
      <path id="路径_184254" data-name="路径 184254" d="M2.731-6.768c-.025,1.089.1,3.976-2.483,5.375a2.441,2.441,0,0,1,.629.625A5.242,5.242,0,0,0,3.213-3.855,4.972,4.972,0,0,0,5.7-.807a2.037,2.037,0,0,1,.552-.664c-2.216-.992-2.6-3.422-2.692-4.292.025-.387.038-.735.044-1.005Z" transform="translate(10.753 9.268)" fill="#081c5e"/>
    </g>
  </g>
  <path id="路径_191034" data-name="路径 191034" d="M88.767,87.586l4.575-4.575a.835.835,0,0,0-1.181-1.181L87.586,86.4,83.01,81.829a.835.835,0,0,0-1.181,1.181L86.4,87.586l-4.575,4.575a.835.835,0,0,0,1.181,1.181l4.575-4.575,4.575,4.575a.835.835,0,0,0,1.181-1.181l-4.575-4.575Z" transform="translate(-77.586 -75.586)" fill="#ff0020" stroke="#ff0020" stroke-width="0.5"/>
</svg>
