<svg id="ic_vedio_Sd_2_3_ball_dark_offline" data-name="ic_vedio_Sd 2&amp;3 ball_dark_offline" xmlns="http://www.w3.org/2000/svg" xmlns:xlink="http://www.w3.org/1999/xlink" width="20" height="20" viewBox="0 0 20 20">
  <defs>
    <linearGradient id="linear-gradient" x1="0.5" x2="0.5" y2="1" gradientUnits="objectBoundingBox">
      <stop offset="0" stop-color="#f7ff00"/>
      <stop offset="1" stop-color="#fd0"/>
    </linearGradient>
  </defs>
  <g id="ic_vedio_Sd_2_3_ball_dark" data-name="ic_vedio_Sd 2&amp;3 ball_dark">
    <rect id="矩形_139634" data-name="矩形 139634" width="20" height="20" rx="4" fill="none"/>
    <g id="组_68985" data-name="组 68985" transform="translate(-35.031 -139.73)">
      <path id="路径_134776" data-name="路径 134776" d="M10,13.215c-5.574,0-7.527-4.15-7.7-7.751A1.251,1.251,0,0,1,1.292,4.337V3.013H1.124A1.061,1.061,0,0,1,0,2.032V1.2A1.061,1.061,0,0,1,1.124.215h17.64A1.258,1.258,0,0,1,20,1.2v.837a1.061,1.061,0,0,1-1.124.981h-.168V4.337A1.251,1.251,0,0,1,17.7,5.464C17.527,9.065,15.574,13.215,10,13.215Zm0-6.642A2.765,2.765,0,0,0,7.143,9.23,2.765,2.765,0,0,0,10,11.887,2.765,2.765,0,0,0,12.857,9.23,2.765,2.765,0,0,0,10,6.573ZM2.079,3.062c0,.039,0,.139,0,.267.007.384.019,1.025,0,1.068H17.809V3.062Zm7.915,7.5a.43.43,0,0,1-.415-.386.392.392,0,0,1,.415-.385.587.587,0,0,0,.6-.557.385.385,0,0,1,.415-.387.393.393,0,0,1,.414.387A1.4,1.4,0,0,1,9.994,10.558Z" transform="translate(35.031 145.515)" fill="url(#linear-gradient)"/>
    </g>
    <g id="组_68986" data-name="组 68986" transform="translate(-2 1)">
      <rect id="矩形_139659" data-name="矩形 139659" width="12" height="7" rx="1" transform="translate(10)" fill="url(#linear-gradient)"/>
      <g id="路径_184252" data-name="路径 184252" transform="translate(15.977 6.688)" fill="#081c5e">
        <path d="M 2.336107730865479 -0.6125004887580872 L 0.5234377384185791 -0.6125004887580872 L 0.4484377503395081 -0.6125004887580872 L 0.4484377503395081 -0.6875004768371582 L 0.4484377503395081 -5.687500476837158 L 0.4484377503395081 -5.762500286102295 L 0.5234377384185791 -5.762500286102295 L 2.336107730865479 -5.762500286102295 C 2.988137722015381 -5.762500286102295 3.533737659454346 -5.55858039855957 3.957737684249878 -5.156410694122314 C 4.382877826690674 -4.753170490264893 4.598437786102295 -4.22938060760498 4.598437786102295 -3.599590539932251 L 4.598437786102295 -2.77198052406311 C 4.598437786102295 -2.139820575714111 4.38281774520874 -1.615970492362976 3.957577705383301 -1.215000510215759 C 3.533597707748413 -0.8152104616165161 2.988057851791382 -0.6125004887580872 2.336107730865479 -0.6125004887580872 Z M 1.640367746353149 -1.531730532646179 L 2.336107730865479 -1.531730532646179 C 2.658527851104736 -1.531730532646179 2.910627841949463 -1.643850445747375 3.106807708740234 -1.874480485916138 C 3.303307771682739 -2.105500459671021 3.402947664260864 -2.407460451126099 3.402947664260864 -2.77198052406311 L 3.402947664260864 -3.606460571289063 C 3.402947664260864 -3.96863055229187 3.303347826004028 -4.268810272216797 3.1069176197052 -4.498660564422607 C 2.910737752914429 -4.728230476379395 2.658597707748413 -4.83983039855957 2.336107730865479 -4.83983039855957 L 1.640367746353149 -4.83983039855957 L 1.640367746353149 -1.531730532646179 Z" stroke="none"/>
        <path d="M 2.336107730865479 -0.6875004768371582 C 2.971247673034668 -0.6875004768371582 3.494597673416138 -0.8815204501152039 3.906127691268921 -1.269570469856262 C 4.317667961120605 -1.657620429992676 4.5234375 -2.158420562744141 4.5234375 -2.77198052406311 L 4.5234375 -3.599590539932251 C 4.5234375 -4.210850238800049 4.317667961120605 -4.711650371551514 3.906127691268921 -5.101990699768066 C 3.494597673416138 -5.492330551147461 2.971247673034668 -5.687500476837158 2.336107730865479 -5.687500476837158 L 0.5234377384185791 -5.687500476837158 L 0.5234377384185791 -0.6875004768371582 L 2.336107730865479 -0.6875004768371582 M 1.565367698669434 -4.914830684661865 L 2.336107730865479 -4.914830684661865 C 2.67865777015686 -4.914830684661865 2.95459771156311 -4.792350292205811 3.16393780708313 -4.547390460968018 C 3.37327766418457 -4.302430629730225 3.47794771194458 -3.988780498504639 3.47794771194458 -3.606460571289063 L 3.47794771194458 -2.77198052406311 C 3.47794771194458 -2.387360572814941 3.37327766418457 -2.072000503540039 3.16393780708313 -1.825890421867371 C 2.95459771156311 -1.579780459403992 2.67865777015686 -1.456730484962463 2.336107730865479 -1.456730484962463 L 1.565367698669434 -1.456730484962463 L 1.565367698669434 -4.914830684661865 M 2.336107730865479 -0.5375005006790161 L 0.5234377384185791 -0.5375005006790161 L 0.3734377324581146 -0.5375005006790161 L 0.3734377324581146 -0.6875004768371582 L 0.3734377324581146 -5.687500476837158 L 0.3734377324581146 -5.83750057220459 L 0.5234377384185791 -5.83750057220459 L 2.336107730865479 -5.83750057220459 C 3.00798773765564 -5.83750057220459 3.570947647094727 -5.626650333404541 4.009357929229736 -5.21082067489624 C 4.450007915496826 -4.79287052154541 4.673437595367432 -4.250770568847656 4.673437595367432 -3.599590539932251 L 4.673437595367432 -2.77198052406311 C 4.673437595367432 -2.118340492248535 4.449897766113281 -1.576140522956848 4.009037971496582 -1.160440444946289 C 3.570677757263184 -0.7470904588699341 3.00781774520874 -0.5375005006790161 2.336107730865479 -0.5375005006790161 Z M 1.715367794036865 -1.606730461120605 L 2.336107730865479 -1.606730461120605 C 2.635207653045654 -1.606730461120605 2.86861777305603 -1.71021044254303 3.049677848815918 -1.923080444335938 C 3.23692774772644 -2.143210411071777 3.327947854995728 -2.42089056968689 3.327947854995728 -2.77198052406311 L 3.327947854995728 -3.606460571289063 C 3.327947854995728 -3.955110549926758 3.236997842788696 -4.231010437011719 3.049907684326172 -4.44994068145752 C 2.868827819824219 -4.661830425262451 2.635337829589844 -4.764830589294434 2.336107730865479 -4.764830589294434 L 1.715367794036865 -4.764830589294434 L 1.715367794036865 -1.606730461120605 Z" stroke="none"/>
      </g>
      <g id="路径_184253" data-name="路径 184253" transform="translate(11.164 6.77)" fill="#081c5e">
        <path d="M 2.399321317672729 -0.694531261920929 C 1.817341208457947 -0.694531261920929 1.309741258621216 -0.8298712372779846 0.8906212449073792 -1.09679126739502 C 0.4600512385368347 -1.371001243591309 0.2481912523508072 -1.784801244735718 0.2609212398529053 -2.326701164245605 L 0.2612112462520599 -2.339011192321777 L 0.2654212415218353 -2.350571155548096 L 0.272701233625412 -2.370591163635254 L 0.290651261806488 -2.419961214065552 L 0.3431812524795532 -2.419961214065552 L 1.373071193695068 -2.419961214065552 L 1.448071241378784 -2.419961214065552 L 1.448071241378784 -2.344961166381836 C 1.448071241378784 -2.080741167068481 1.52855122089386 -1.893061280250549 1.694111227989197 -1.771191239356995 C 1.864471197128296 -1.645771265029907 2.101741313934326 -1.582181215286255 2.399321317672729 -1.582181215286255 C 2.665601253509521 -1.582181215286255 2.869271278381348 -1.632351279258728 3.004671335220337 -1.7312912940979 C 3.134581327438354 -1.826231241226196 3.197731256484985 -1.949451208114624 3.197731256484985 -2.107981204986572 C 3.197731256484985 -2.27238130569458 3.137301206588745 -2.400611162185669 3.013001203536987 -2.500001192092896 C 2.879631280899048 -2.606651306152344 2.636951208114624 -2.709871292114258 2.291711330413818 -2.806801319122314 C 1.674821257591248 -2.977431297302246 1.198421239852905 -3.182331323623657 0.8760112524032593 -3.41572117805481 C 0.5402912497520447 -3.658751249313354 0.3700712323188782 -3.994751214981079 0.3700712323188782 -4.414391040802002 C 0.3700712323188782 -4.836581230163574 0.5607112646102905 -5.185641288757324 0.936701238155365 -5.451901435852051 C 1.304591298103333 -5.71243143081665 1.778321266174316 -5.844531059265137 2.344731330871582 -5.844531059265137 C 2.94585132598877 -5.844531059265137 3.438011169433594 -5.702391147613525 3.807531356811523 -5.42207145690918 C 4.184091091156006 -5.136411190032959 4.368541240692139 -4.756251335144043 4.355761051177979 -4.292171478271484 L 4.355431079864502 -4.280031204223633 L 4.35128116607666 -4.268611431121826 L 4.344001293182373 -4.248581409454346 L 4.326051235198975 -4.199201107025146 L 4.273511409759521 -4.199201107025146 L 3.243611335754395 -4.199201107025146 L 3.168611288070679 -4.199201107025146 L 3.168611288070679 -4.274201393127441 C 3.168611288070679 -4.495001316070557 3.099101305007935 -4.658841133117676 2.956121206283569 -4.775081157684326 C 2.810461282730103 -4.893501281738281 2.599871158599854 -4.953541278839111 2.330181360244751 -4.953541278839111 C 2.086971282958984 -4.953541278839111 1.898361206054688 -4.900761127471924 1.769581198692322 -4.796651363372803 C 1.64384126663208 -4.695011138916016 1.58272123336792 -4.568881034851074 1.58272123336792 -4.411051273345947 C 1.58272123336792 -4.271541118621826 1.648181200027466 -4.159171104431152 1.782831192016602 -4.067511081695557 C 1.931201219558716 -3.966511249542236 2.195051193237305 -3.856901168823242 2.567071199417114 -3.741701364517212 C 3.153541326522827 -3.589391231536865 3.611051321029663 -3.385371208190918 3.92358136177063 -3.136261224746704 C 4.246591091156006 -2.878801345825195 4.41037130355835 -2.535081148147583 4.41037130355835 -2.11466121673584 C 4.41037130355835 -1.674111247062683 4.220541477203369 -1.321951270103455 3.846161365509033 -1.067951202392578 C 3.480951309204102 -0.8201712369918823 2.994161128997803 -0.694531261920929 2.399321317672729 -0.694531261920929 Z" stroke="none"/>
        <path d="M 2.399321317672729 -0.76953125 C 2.98159122467041 -0.76953125 3.449841260910034 -0.8896912336349487 3.804051160812378 -1.130011200904846 C 4.158271312713623 -1.370331287384033 4.335371017456055 -1.698551297187805 4.335371017456055 -2.11466121673584 C 4.335371017456055 -2.512971162796021 4.182531356811523 -2.833951234817505 3.876831293106079 -3.077611207962036 C 3.571141242980957 -3.321271181106567 3.127161264419556 -3.51875114440918 2.544891357421875 -3.670061349868774 C 2.163991212844849 -3.788001298904419 1.895901203155518 -3.899811267852783 1.740631222724915 -4.005511283874512 C 1.585351228713989 -4.11121129989624 1.507721304893494 -4.246391296386719 1.507721304893494 -4.411051273345947 C 1.507721304893494 -4.591291427612305 1.579291224479675 -4.73927116394043 1.722431302070618 -4.854981422424316 C 1.865571260452271 -4.970691204071045 2.068151235580444 -5.028541088104248 2.330181360244751 -5.028541088104248 C 2.61889123916626 -5.028541088104248 2.843301296234131 -4.963461399078369 3.00343132019043 -4.83328104019165 C 3.163551330566406 -4.703111171722412 3.243611335754395 -4.516751289367676 3.243611335754395 -4.274201393127441 L 4.273511409759521 -4.274201393127441 L 4.280791282653809 -4.294231414794922 C 4.29292106628418 -4.734821319580078 4.120051383972168 -5.090851306915283 3.762201309204102 -5.362321376800537 C 3.404351234436035 -5.633791446685791 2.931861162185669 -5.76953125 2.344731330871582 -5.76953125 C 1.791581273078918 -5.76953125 1.336681246757507 -5.643251419067383 0.9800412654876709 -5.39069128036499 C 0.6233912706375122 -5.138131141662598 0.4450712502002716 -4.812701225280762 0.4450712502002716 -4.414391040802002 C 0.4450712502002716 -4.018311023712158 0.6033812761306763 -3.705671310424805 0.9199912548065186 -3.476471185684204 C 1.236601233482361 -3.247281312942505 1.70060122013092 -3.048121213912964 2.311981201171875 -2.879011154174805 C 2.668621301651001 -2.778881311416626 2.917911291122437 -2.672071218490601 3.059841156005859 -2.558581352233887 C 3.201761245727539 -2.445101261138916 3.272731304168701 -2.294901132583618 3.272731304168701 -2.107981204986572 C 3.272731304168701 -1.92552125453949 3.198121309280396 -1.779771208763123 3.048921346664429 -1.67073130607605 C 2.899711132049561 -1.56170129776001 2.683181285858154 -1.507181286811829 2.399321317672729 -1.507181286811829 C 2.083921194076538 -1.507181286811829 1.834031224250793 -1.575051307678223 1.649651288986206 -1.710791230201721 C 1.465261220932007 -1.846521258354187 1.373071193695068 -2.057911157608032 1.373071193695068 -2.344961166381836 L 0.3431812524795532 -2.344961166381836 L 0.3359012603759766 -2.324941158294678 C 0.3237712383270264 -1.808691263198853 0.5221012234687805 -1.420401215553284 0.9309112429618835 -1.160051226615906 C 1.33971118927002 -0.8997012376785278 1.82918119430542 -0.76953125 2.399321317672729 -0.76953125 M 2.399321317672729 -0.6195312738418579 C 1.802841305732727 -0.6195312738418579 1.281681299209595 -0.7588212490081787 0.8503312468528748 -1.033531308174133 C 0.3960812389850616 -1.322821259498596 0.1725512444972992 -1.758501291275024 0.1859412491321564 -2.328461170196533 L 0.1865212470293045 -2.353071212768555 L 0.1949312537908554 -2.376201152801514 L 0.2022112458944321 -2.396221160888672 L 0.2381212413311005 -2.494961261749268 L 0.3431812524795532 -2.494961261749268 L 1.373071193695068 -2.494961261749268 L 1.5230712890625 -2.494961261749268 L 1.5230712890625 -2.344961166381836 C 1.5230712890625 -2.106261253356934 1.593561291694641 -1.938331246376038 1.738571286201477 -1.831591248512268 C 1.895781278610229 -1.715861201286316 2.118081331253052 -1.657181262969971 2.399321317672729 -1.657181262969971 C 2.649361133575439 -1.657181262969971 2.838141202926636 -1.702491283416748 2.960421323776245 -1.791841268539429 C 3.071151256561279 -1.872771263122559 3.12273120880127 -1.973221302032471 3.12273120880127 -2.107981204986572 C 3.12273120880127 -2.250061273574829 3.072981357574463 -2.356021165847778 2.966161251068115 -2.441431283950806 C 2.840691328048706 -2.541761159896851 2.606951236724854 -2.640401363372803 2.27143120765686 -2.734591245651245 C 1.646181225776672 -2.907541275024414 1.1617112159729 -3.116311311721802 0.83203125 -3.354961156845093 C 0.4757312536239624 -3.612901210784912 0.2950712442398071 -3.969341278076172 0.2950712442398071 -4.414391040802002 C 0.2950712442398071 -4.862321376800537 0.496361255645752 -5.23198127746582 0.8933512568473816 -5.513101100921631 C 1.274171233177185 -5.782791137695313 1.762491226196289 -5.919531345367432 2.344731330871582 -5.919531345367432 C 2.962591171264648 -5.919531345367432 3.470001220703125 -5.772261142730713 3.852861166000366 -5.481821060180664 C 4.249791145324707 -5.180711269378662 4.444211483001709 -4.779751300811768 4.430731296539307 -4.290101051330566 L 4.430061340332031 -4.26582145690918 L 4.421771049499512 -4.24299144744873 L 4.414491176605225 -4.22296142578125 L 4.378591060638428 -4.12420129776001 L 4.273511409759521 -4.12420129776001 L 3.243611335754395 -4.12420129776001 L 3.093611240386963 -4.12420129776001 L 3.093611240386963 -4.274201393127441 C 3.093611240386963 -4.470991134643555 3.033161163330078 -4.615801334381104 2.908811330795288 -4.716891288757324 C 2.776871204376221 -4.824151039123535 2.582191228866577 -4.878541469573975 2.330181360244751 -4.878541469573975 C 2.104571342468262 -4.878541469573975 1.931821227073669 -4.831371307373047 1.816731214523315 -4.738331317901611 C 1.708251237869263 -4.650631427764893 1.657721281051636 -4.54664134979248 1.657721281051636 -4.411051273345947 C 1.657721281051636 -4.296671390533447 1.710891246795654 -4.207211017608643 1.8250412940979 -4.12951135635376 C 1.966815948486328 -4.0329909324646 2.222825288772583 -3.926967144012451 2.585991144180298 -3.814364433288574 C 3.184372901916504 -3.658530235290527 3.650138139724731 -3.450127363204956 3.970331192016602 -3.194911241531372 C 4.312081336975098 -2.922511339187622 4.485371112823486 -2.559061288833618 4.485371112823486 -2.11466121673584 C 4.485371112823486 -1.647741198539734 4.284471035003662 -1.274691224098206 3.888261318206787 -1.005881309509277 C 3.510411262512207 -0.7495212554931641 3.009451150894165 -0.6195312738418579 2.399321317672729 -0.6195312738418579 Z" stroke="none"/>
      </g>
    </g>
  </g>
  <path id="路径_191043" data-name="路径 191043" d="M88.767,87.586l4.575-4.575a.835.835,0,0,0-1.181-1.181L87.586,86.4,83.01,81.829a.835.835,0,0,0-1.181,1.181L86.4,87.586l-4.575,4.575a.835.835,0,0,0,1.181,1.181l4.575-4.575,4.575,4.575a.835.835,0,0,0,1.181-1.181l-4.575-4.575Z" transform="translate(-77.586 -75.586)" fill="#ff0020" stroke="#ff0020" stroke-width="0.5"/>
</svg>
