<svg id="ic_vedio_high_first_gun_dark_online" data-name="ic_vedio_high first gun_dark_online" xmlns="http://www.w3.org/2000/svg" xmlns:xlink="http://www.w3.org/1999/xlink" width="20.001" height="20" viewBox="0 0 20.001 20">
  <defs>
    <linearGradient id="linear-gradient" x1="0.638" y1="0.247" x2="0" y2="0.987" gradientUnits="objectBoundingBox">
      <stop offset="0" stop-color="#00ffef"/>
      <stop offset="1" stop-color="#0082ff"/>
    </linearGradient>
    <linearGradient id="linear-gradient-2" x1="0.5" y1="0" x2="0.5" y2="1" xlink:href="#linear-gradient"/>
  </defs>
  <rect id="矩形_139633" data-name="矩形 139633" width="20" height="20" rx="4" transform="translate(0.001)" fill="none"/>
  <path id="路径_190999" data-name="路径 190999" d="M155.217,249.683a.392.392,0,0,0-.294.133.489.489,0,0,0-.123.326v6.4a.438.438,0,0,0,.417.457h.833a1.317,1.317,0,0,0,1.25-1.373v-.456h4.583a2.083,2.083,0,0,0,1.938-1.456.489.489,0,0,0-.1-.495.389.389,0,0,0-.452-.094,2.285,2.285,0,0,1-.971.214,2.474,2.474,0,0,1-2.249-1.57.417.417,0,0,0-.376-.26H157.3v-.457a1.317,1.317,0,0,0-1.25-1.373Zm-.231-4.575a1.475,1.475,0,0,0-.186.718v.2a1.4,1.4,0,0,0,.708,1.236l5.229,2.763a1.511,1.511,0,0,0-.1.574,1.755,1.755,0,0,0,1.667,1.829,1.653,1.653,0,0,0,1.45-.928l2.535,1.34a.388.388,0,0,0,.437-.051l3.543-3.023L172.531,251a.384.384,0,0,0,.436-.043l1.333-1.1a1.391,1.391,0,0,0,.479-.842.511.511,0,0,0,.021-.145v-.108a.5.5,0,0,0-.036-.185,1.353,1.353,0,0,0-.656-.934l-13.326-7.311a2.673,2.673,0,0,0-1.3-.339A2.853,2.853,0,0,0,157,241.523ZM167.9,252.96a.47.47,0,0,0-.186.4.462.462,0,0,0,.21.381l2.917,1.829a.384.384,0,0,0,.327.041.431.431,0,0,0,.252-.233l1.252-2.744a.5.5,0,0,0,.022-.35.442.442,0,0,0-.209-.263l-1.666-.915a.385.385,0,0,0-.417.028l-2.5,1.829Zm0,0" transform="translate(-154.8 -237)" fill="url(#linear-gradient)"/>
  <g id="组_68969" data-name="组 68969" transform="translate(3)">
    <rect id="矩形_139659" data-name="矩形 139659" width="10" height="8" rx="1" transform="translate(7)" fill="url(#linear-gradient-2)"/>
    <path id="路径_184377" data-name="路径 184377" d="M5.036-4.272H3.292v-.445H5.036ZM7.5-6.4H.906v3.487h.912V-5.653H6.55v1.888c0,.1-.048.133-.159.133-.079.008-.357.008-.634,0h.111V-5.365H2.42v2.059h.872v-.328H5.559a2.962,2.962,0,0,1,.277.655A4.342,4.342,0,0,0,7.1-3.071c.3-.117.4-.281.4-.686ZM5.749-7.338H2.682v-.429H5.749ZM6.74-8.391h-5v1.669h5ZM4.83-9.468c-.1-.25-.222-.538-.309-.78l-.975.234c.063.164.127.359.19.546H.684v.78h7v-.78Z" transform="translate(7.816 10.748)" fill="#081c5e"/>
  </g>
</svg>
