<svg id="ic_vedio_hd_first_ball_dark" data-name="ic_vedio_hd first ball_dark" xmlns="http://www.w3.org/2000/svg" xmlns:xlink="http://www.w3.org/1999/xlink" width="20" height="20" viewBox="0 0 20 20">
  <defs>
    <linearGradient id="linear-gradient" x1="0.5" x2="0.5" y2="1" gradientUnits="objectBoundingBox">
      <stop offset="0" stop-color="#00ffef"/>
      <stop offset="1" stop-color="#0082ff"/>
    </linearGradient>
    <linearGradient id="linear-gradient-2" x1="0.5" x2="0.5" y2="1" gradientUnits="objectBoundingBox">
      <stop offset="0" stop-color="#23fff1"/>
      <stop offset="1" stop-color="#2392fd"/>
    </linearGradient>
  </defs>
  <rect id="矩形_139634" data-name="矩形 139634" width="20" height="20" rx="4" transform="translate(0)" fill="none"/>
  <g id="组_30769" data-name="组 30769" transform="translate(-35.031 -139.73)">
    <path id="路径_134776" data-name="路径 134776" d="M10,13.215c-5.574,0-7.527-4.15-7.7-7.751A1.251,1.251,0,0,1,1.292,4.337V3.013H1.124A1.061,1.061,0,0,1,0,2.032V1.2A1.061,1.061,0,0,1,1.124.215h17.64A1.258,1.258,0,0,1,20,1.2v.837a1.061,1.061,0,0,1-1.124.981h-.168V4.337A1.251,1.251,0,0,1,17.7,5.464C17.527,9.065,15.574,13.215,10,13.215Zm0-6.642A2.765,2.765,0,0,0,7.143,9.23,2.765,2.765,0,0,0,10,11.887,2.765,2.765,0,0,0,12.857,9.23,2.765,2.765,0,0,0,10,6.573ZM2.079,3.062c0,.039,0,.139,0,.267.007.384.019,1.025,0,1.068H17.809V3.062Zm7.915,7.5a.43.43,0,0,1-.415-.386.392.392,0,0,1,.415-.385.587.587,0,0,0,.6-.557.385.385,0,0,1,.415-.387.393.393,0,0,1,.414.387A1.4,1.4,0,0,1,9.994,10.558Z" transform="translate(35.031 145.515)" fill="url(#linear-gradient)"/>
  </g>
  <g id="组_67962" data-name="组 67962" transform="translate(-1 1)">
    <rect id="矩形_139659" data-name="矩形 139659" width="12" height="7" rx="1" transform="translate(9)" fill="url(#linear-gradient-2)"/>
    <g id="路径_184251" data-name="路径 184251" transform="translate(9.977 6.688)" fill="#081c5e">
      <path d="M 4.598437786102295 -0.6125004887580872 L 4.5234375 -0.6125004887580872 L 3.531087636947632 -0.6125004887580872 L 3.456087827682495 -0.6125004887580872 L 3.456087827682495 -0.6875004768371582 L 3.456087827682495 -2.690110445022583 L 1.590787768363953 -2.690110445022583 L 1.590787768363953 -0.6875004768371582 L 1.590787768363953 -0.6125004887580872 L 1.515787720680237 -0.6125004887580872 L 0.5234377384185791 -0.6125004887580872 L 0.4484377503395081 -0.6125004887580872 L 0.4484377503395081 -0.6875004768371582 L 0.4484377503395081 -5.687500476837158 L 0.4484377503395081 -5.762500286102295 L 0.5234377384185791 -5.762500286102295 L 1.515787720680237 -5.762500286102295 L 1.590787768363953 -5.762500286102295 L 1.590787768363953 -5.687500476837158 L 1.590787768363953 -3.612770557403564 L 3.456087827682495 -3.612770557403564 L 3.456087827682495 -5.687500476837158 L 3.456087827682495 -5.762500286102295 L 3.531087636947632 -5.762500286102295 L 4.5234375 -5.762500286102295 L 4.598437786102295 -5.762500286102295 L 4.598437786102295 -5.687500476837158 L 4.598437786102295 -0.6875004768371582 L 4.598437786102295 -0.6125004887580872 Z" stroke="none"/>
      <path d="M 4.5234375 -0.6875004768371582 L 4.5234375 -5.687500476837158 L 3.531087636947632 -5.687500476837158 L 3.531087636947632 -3.537770509719849 L 1.515787720680237 -3.537770509719849 L 1.515787720680237 -5.687500476837158 L 0.5234377384185791 -5.687500476837158 L 0.5234377384185791 -0.6875004768371582 L 1.515787720680237 -0.6875004768371582 L 1.515787720680237 -2.765110492706299 L 3.531087636947632 -2.765110492706299 L 3.531087636947632 -0.6875004768371582 L 4.5234375 -0.6875004768371582 M 4.673437595367432 -0.5375005006790161 L 4.5234375 -0.5375005006790161 L 3.531087636947632 -0.5375005006790161 L 3.381087779998779 -0.5375005006790161 L 3.381087779998779 -0.6875004768371582 L 3.381087779998779 -2.615110397338867 L 1.665787696838379 -2.615110397338867 L 1.665787696838379 -0.6875004768371582 L 1.665787696838379 -0.5375005006790161 L 1.515787720680237 -0.5375005006790161 L 0.5234377384185791 -0.5375005006790161 L 0.3734377324581146 -0.5375005006790161 L 0.3734377324581146 -0.6875004768371582 L 0.3734377324581146 -5.687500476837158 L 0.3734377324581146 -5.83750057220459 L 0.5234377384185791 -5.83750057220459 L 1.515787720680237 -5.83750057220459 L 1.665787696838379 -5.83750057220459 L 1.665787696838379 -5.687500476837158 L 1.665787696838379 -3.687770366668701 L 3.381087779998779 -3.687770366668701 L 3.381087779998779 -5.687500476837158 L 3.381087779998779 -5.83750057220459 L 3.531087636947632 -5.83750057220459 L 4.5234375 -5.83750057220459 L 4.673437595367432 -5.83750057220459 L 4.673437595367432 -5.687500476837158 L 4.673437595367432 -0.6875004768371582 L 4.673437595367432 -0.5375005006790161 Z" stroke="none"/>
    </g>
    <g id="路径_184252" data-name="路径 184252" transform="translate(14.977 6.688)" fill="#081c5e">
      <path d="M 2.336107730865479 -0.6125004887580872 L 0.5234377384185791 -0.6125004887580872 L 0.4484377503395081 -0.6125004887580872 L 0.4484377503395081 -0.6875004768371582 L 0.4484377503395081 -5.687500476837158 L 0.4484377503395081 -5.762500286102295 L 0.5234377384185791 -5.762500286102295 L 2.336107730865479 -5.762500286102295 C 2.988137722015381 -5.762500286102295 3.533737659454346 -5.55858039855957 3.957737684249878 -5.156410694122314 C 4.382877826690674 -4.753170490264893 4.598437786102295 -4.22938060760498 4.598437786102295 -3.599590539932251 L 4.598437786102295 -2.77198052406311 C 4.598437786102295 -2.139820575714111 4.38281774520874 -1.615970492362976 3.957577705383301 -1.215000510215759 C 3.533597707748413 -0.8152104616165161 2.988057851791382 -0.6125004887580872 2.336107730865479 -0.6125004887580872 Z M 1.640367746353149 -1.531730532646179 L 2.336107730865479 -1.531730532646179 C 2.658527851104736 -1.531730532646179 2.910627841949463 -1.643850445747375 3.106807708740234 -1.874480485916138 C 3.303307771682739 -2.105500459671021 3.402947664260864 -2.407460451126099 3.402947664260864 -2.77198052406311 L 3.402947664260864 -3.606460571289063 C 3.402947664260864 -3.96863055229187 3.303347826004028 -4.268810272216797 3.1069176197052 -4.498660564422607 C 2.910737752914429 -4.728230476379395 2.658597707748413 -4.83983039855957 2.336107730865479 -4.83983039855957 L 1.640367746353149 -4.83983039855957 L 1.640367746353149 -1.531730532646179 Z" stroke="none"/>
      <path d="M 2.336107730865479 -0.6875004768371582 C 2.971247673034668 -0.6875004768371582 3.494597673416138 -0.8815204501152039 3.906127691268921 -1.269570469856262 C 4.317667961120605 -1.657620429992676 4.5234375 -2.158420562744141 4.5234375 -2.77198052406311 L 4.5234375 -3.599590539932251 C 4.5234375 -4.210850238800049 4.317667961120605 -4.711650371551514 3.906127691268921 -5.101990699768066 C 3.494597673416138 -5.492330551147461 2.971247673034668 -5.687500476837158 2.336107730865479 -5.687500476837158 L 0.5234377384185791 -5.687500476837158 L 0.5234377384185791 -0.6875004768371582 L 2.336107730865479 -0.6875004768371582 M 1.565367698669434 -4.914830684661865 L 2.336107730865479 -4.914830684661865 C 2.67865777015686 -4.914830684661865 2.95459771156311 -4.792350292205811 3.16393780708313 -4.547390460968018 C 3.37327766418457 -4.302430629730225 3.47794771194458 -3.988780498504639 3.47794771194458 -3.606460571289063 L 3.47794771194458 -2.77198052406311 C 3.47794771194458 -2.387360572814941 3.37327766418457 -2.072000503540039 3.16393780708313 -1.825890421867371 C 2.95459771156311 -1.579780459403992 2.67865777015686 -1.456730484962463 2.336107730865479 -1.456730484962463 L 1.565367698669434 -1.456730484962463 L 1.565367698669434 -4.914830684661865 M 2.336107730865479 -0.5375005006790161 L 0.5234377384185791 -0.5375005006790161 L 0.3734377324581146 -0.5375005006790161 L 0.3734377324581146 -0.6875004768371582 L 0.3734377324581146 -5.687500476837158 L 0.3734377324581146 -5.83750057220459 L 0.5234377384185791 -5.83750057220459 L 2.336107730865479 -5.83750057220459 C 3.00798773765564 -5.83750057220459 3.570947647094727 -5.626650333404541 4.009357929229736 -5.21082067489624 C 4.450007915496826 -4.79287052154541 4.673437595367432 -4.250770568847656 4.673437595367432 -3.599590539932251 L 4.673437595367432 -2.77198052406311 C 4.673437595367432 -2.118340492248535 4.449897766113281 -1.576140522956848 4.009037971496582 -1.160440444946289 C 3.570677757263184 -0.7470904588699341 3.00781774520874 -0.5375005006790161 2.336107730865479 -0.5375005006790161 Z M 1.715367794036865 -1.606730461120605 L 2.336107730865479 -1.606730461120605 C 2.635207653045654 -1.606730461120605 2.86861777305603 -1.71021044254303 3.049677848815918 -1.923080444335938 C 3.23692774772644 -2.143210411071777 3.327947854995728 -2.42089056968689 3.327947854995728 -2.77198052406311 L 3.327947854995728 -3.606460571289063 C 3.327947854995728 -3.955110549926758 3.236997842788696 -4.231010437011719 3.049907684326172 -4.44994068145752 C 2.868827819824219 -4.661830425262451 2.635337829589844 -4.764830589294434 2.336107730865479 -4.764830589294434 L 1.715367794036865 -4.764830589294434 L 1.715367794036865 -1.606730461120605 Z" stroke="none"/>
    </g>
  </g>
</svg>
