<svg id="ic_vedio_man_first_gun_dark_offline" data-name="ic_vedio_man first gun_dark_offline" xmlns="http://www.w3.org/2000/svg" xmlns:xlink="http://www.w3.org/1999/xlink" width="20" height="20" viewBox="0 0 20 20">
  <defs>
    <linearGradient id="linear-gradient" x1="0.575" y1="0.244" x2="0.015" y2="0.978" gradientUnits="objectBoundingBox">
      <stop offset="0" stop-color="#00ffef"/>
      <stop offset="1" stop-color="#0082ff"/>
    </linearGradient>
    <linearGradient id="linear-gradient-2" x1="0.5" x2="0.5" y2="1" gradientUnits="objectBoundingBox">
      <stop offset="0" stop-color="#23fff1"/>
      <stop offset="1" stop-color="#2392fd"/>
    </linearGradient>
  </defs>
  <g id="ic_vedio_man_first_gun_dark_online" data-name="ic_vedio_man first gun_dark_online">
    <rect id="矩形_139633" data-name="矩形 139633" width="20" height="20" rx="4" fill="none"/>
    <path id="路径_190997" data-name="路径 190997" d="M4.241,62.238H2.089v-2.4L0,59.507V67.2l2.089-.613V63.911H5.443l1.835-2.174L4.873,60.622Zm10.886.5L20,60.008,4.81,51.2H3.038L.633,54.545V55.66L13.988,62.8h1.139V62.74Zm-1.835.557L1.772,56.719.57,57.834,13.924,64.97h1.2l.633-.558.633-1.617s-1.772,1.115-1.835,1.115A11.353,11.353,0,0,0,13.291,63.3Z" transform="translate(0 -47.2)" fill="url(#linear-gradient)"/>
    <g id="组_67961" data-name="组 67961" transform="translate(0 -2)">
      <rect id="矩形_139659" data-name="矩形 139659" width="12" height="7" rx="1" transform="translate(8 2)" fill="url(#linear-gradient-2)"/>
      <path id="路径_184254" data-name="路径 184254" d="M2.731-6.768c-.025,1.089.1,3.976-2.483,5.375a2.441,2.441,0,0,1,.629.625A5.242,5.242,0,0,0,3.213-3.855,4.972,4.972,0,0,0,5.7-.807a2.037,2.037,0,0,1,.552-.664c-2.216-.992-2.6-3.422-2.692-4.292.025-.387.038-.735.044-1.005Z" transform="translate(10.753 9.268)" fill="#081c5e"/>
    </g>
  </g>
  <path id="路径_191029" data-name="路径 191029" d="M88.767,87.586l4.575-4.575a.835.835,0,0,0-1.181-1.181L87.586,86.4,83.01,81.829a.835.835,0,0,0-1.181,1.181L86.4,87.586l-4.575,4.575a.835.835,0,0,0,1.181,1.181l4.575-4.575,4.575,4.575a.835.835,0,0,0,1.181-1.181l-4.575-4.575Z" transform="translate(-77.586 -76.586)" fill="#ff0020" stroke="#ff0020" stroke-width="0.5"/>
</svg>
